<svg width="155" height="45" viewBox="0 0 155 45" fill="none" xmlns="http://www.w3.org/2000/svg">
<path d="M55.0833 44.6544C54.7878 43.8705 48.5206 23.5259 48.5206 23.3503C48.5206 23.2454 49.2699 23.1595 50.1857 23.1595H51.8508L52.457 25.0256C52.7904 26.052 53.9726 29.8153 55.0841 33.3886C57.4813 41.095 57.3423 40.6925 57.5431 40.5105C57.6313 40.4307 58.9826 36.5251 60.546 31.8315L63.3885 23.2978L64.8959 23.216L66.4033 23.1343L69.2777 31.8555C70.8585 36.6521 72.229 40.5766 72.323 40.5766C72.4171 40.5766 73.7138 36.6578 75.2047 31.8681L77.9152 23.1595H79.7259C81.0481 23.1595 81.4975 23.2527 81.3919 23.5051C81.1718 24.0309 74.7591 44.6588 74.7591 44.8409C74.7591 44.9284 73.8074 45 72.6442 45H70.5292L69.3141 41.4751C68.6457 39.5364 67.4445 36.0219 66.6447 33.6651C65.8448 31.3082 65.1111 29.2917 65.0141 29.1839C64.9172 29.076 63.6034 32.5904 62.0947 36.9936L59.3516 44.9995L57.2826 44.9997C55.9001 44.9999 55.1704 44.8853 55.0833 44.6544ZM89.4546 44.644C89.5106 44.4325 91.4785 39.5097 93.8277 33.7045L98.0991 23.1497L100.197 23.2235L102.295 23.2974L106.68 34.0704C109.092 39.9956 111.066 44.8848 111.066 44.9353C111.066 44.9859 110.28 44.9899 109.32 44.9447L107.574 44.8618L106.623 42.5119L105.673 40.1619L100.208 40.0882L94.743 40.0146L93.8014 42.4382L92.8597 44.8618L91.1063 44.9454C89.7314 45.0109 89.3749 44.9455 89.4546 44.644ZM104.231 36.3601C104.014 35.8659 103.038 33.4275 102.064 30.9413C100.821 27.7687 100.216 26.546 100.034 26.8404C99.8919 27.071 99.1006 28.9808 98.2759 31.0842C97.4511 33.1877 96.5652 35.4374 96.3071 36.0836L95.8379 37.2586H100.233H104.628L104.231 36.3601ZM121.439 34.0793V23.1591H123.117H124.795V32.697V42.2349H128.914H133.033V43.6172V44.9995H127.236H121.439V34.0793ZM143.406 34.0793V23.1591H145.084H146.762V32.697V42.2349H150.881H155V43.6172V44.9995H149.203H143.406V34.0793ZM90.6862 18.1444C85.5297 17.3888 82.3521 13.428 82.7598 8.26452C83.0958 4.00845 85.9358 1.0364 90.4594 0.206899C96.3207 -0.867932 101.393 2.33938 102.208 7.63533C102.851 11.8189 100.957 15.5326 97.3195 17.2177C96.0917 17.7865 95.3684 17.9638 92.9124 18.2982C92.5768 18.3438 91.575 18.2746 90.6862 18.1444ZM96.5244 14.97C100.236 12.6449 100.638 6.59274 97.2609 3.9056C95.7819 2.72893 94.3273 2.34473 91.8344 2.47237C90.0867 2.56182 89.5288 2.7204 88.4299 3.4398C84.7898 5.82273 84.4184 11.408 87.7078 14.297C89.1446 15.5589 90.6793 16.0019 93.1683 15.8733C94.8509 15.7863 95.5005 15.6114 96.5244 14.97ZM118.423 18.1409C116.159 17.8097 113.926 16.6373 112.545 15.0549C109.557 11.6318 109.768 5.94717 113 2.76961C114.489 1.30622 115.793 0.66823 118.223 0.213564C122.73 -0.629404 127.334 1.34438 129.184 4.91306C129.719 5.94371 129.829 6.67885 129.829 9.19821C129.829 11.9604 129.755 12.3661 129.018 13.6216C128.061 15.2499 126.647 16.5244 124.934 17.3009C123.844 17.795 123.11 17.9668 120.676 18.2982C120.341 18.3438 119.327 18.2731 118.423 18.1409ZM123.612 15.199C125.937 14.0985 126.974 12.508 127.17 9.74531C127.41 6.35753 125.907 3.79031 123.119 2.82553C121.089 2.12307 117.929 2.35453 116.312 3.32408C112.357 5.69559 112.139 12.3691 115.938 14.78C118.142 16.1792 121.189 16.3456 123.612 15.199ZM53.4358 16.3171C52.1507 12.3359 48.5206 0.582327 48.5206 0.402657C48.5206 0.298481 49.1331 0.213196 49.8817 0.213196C51.4645 0.213196 50.9835 -0.795189 53.8726 8.57913C54.8444 11.7326 55.7229 14.3128 55.8248 14.3128C55.9266 14.3128 57.0438 11.1715 58.3074 7.33208L60.6048 0.351446L61.8574 0.267644L63.11 0.183845L63.545 1.51171C65.9301 8.79263 67.8942 14.5433 67.9718 14.4729C68.0241 14.4256 69.062 11.2288 70.2784 7.3691L72.4899 0.351413L73.9296 0.267199C74.7214 0.220805 75.3693 0.230838 75.3693 0.289457C75.3693 0.347971 74.2839 3.86934 72.9574 8.11463C71.6309 12.3599 70.39 16.3621 70.1998 17.0083L69.854 18.1833H68.2038H66.5536L65.1845 14.2437C64.4315 12.0769 63.4318 9.15335 62.963 7.74685C62.4942 6.34034 62.0285 5.18958 61.9283 5.18958C61.7775 5.18958 58.5837 14.1493 57.6169 17.2848C57.3479 18.1568 57.2912 18.1833 55.689 18.1833H54.0382L53.4358 16.3171ZM139.44 9.19821V0.213196H143.503C146.221 0.213196 148.076 0.350089 149.103 0.626621C151.035 1.14657 153.174 2.82412 154.119 4.56184C154.751 5.72283 154.837 6.27773 154.84 9.19821C154.844 12.0893 154.758 12.662 154.174 13.6538C152.081 17.2066 149.616 18.1832 142.74 18.1832H139.44V9.19821ZM148.795 15.3261C150.736 14.4113 151.892 12.5978 152.154 10.057C152.38 7.86893 151.863 5.82245 150.725 4.39896C149.613 3.00904 147.793 2.42489 144.572 2.42489H142.186V9.0139C142.186 12.6379 142.289 15.7002 142.415 15.8192C142.781 16.1653 147.845 15.774 148.795 15.3261ZM16.9759 39.8855C16.2256 38.1402 15.2258 33.9877 15.0253 31.7838C14.6371 27.5164 16.4147 18.1616 17.4377 19.0885C17.5125 19.1565 17.3717 20.4425 17.1248 21.9464C16.8778 23.4504 16.7158 25.4877 16.7649 26.4737L16.854 28.2666L18.1729 27.0697C18.8983 26.4114 19.6978 25.5117 19.9497 25.0703C20.7436 23.6792 20.7654 24.4911 19.976 26.0534C19.5611 26.8746 18.7233 27.998 18.1141 28.55C17.2825 29.3036 17.0065 29.7839 17.0065 30.4778C17.0065 31.7873 18.1406 35.6868 19.1904 37.9871C19.6804 39.0608 20.1103 40.0638 20.1457 40.2158C20.1811 40.3679 19.5574 40.5302 18.7597 40.5766C17.4163 40.6547 17.2847 40.6037 16.9759 39.8855ZM5.12569 27.4572C3.53754 26.9535 2.52819 26.417 1.37028 25.4613C0.270212 24.5533 0.311905 24.3193 1.57376 24.3193C2.17762 24.3193 3.45991 23.9137 4.62129 23.3554C7.9455 21.7574 10.1728 21.7877 11.9355 23.4549L12.7619 24.2366L9.77385 24.4672C8.13041 24.5941 5.4564 24.706 3.83162 24.7159C1.81176 24.7282 1.03982 24.8164 1.39083 24.9948C2.05238 25.3309 6.01875 25.3542 9.56488 25.0428C12.7379 24.7641 13.2695 25.0029 12.0807 26.1731C10.4398 27.7882 7.74086 28.2866 5.12569 27.4572ZM25.2885 26.7881C24.3386 26.4434 22.8034 25.444 22.8034 25.1705C22.8034 24.8939 27.863 24.499 31.707 24.4755C33.7269 24.4632 34.4988 24.375 34.1478 24.1967C33.4883 23.8616 29.5675 23.8404 25.8221 24.1517C22.3594 24.4396 22.0048 24.232 23.5568 22.8258C26.0273 20.5872 30.5021 20.9334 34.0486 23.6374C35.2672 24.5666 35.2591 24.8715 34.0158 24.8752C33.4705 24.8773 31.8573 25.3732 30.4309 25.9781C27.8272 27.0824 26.6223 27.2722 25.2885 26.7881ZM1.27765 20.1292C0.521027 19.4972 -0.0522123 18.8556 0.00377901 18.7034C0.0597749 18.5512 1.03315 18.3817 2.16683 18.3268C4.12596 18.2319 4.27435 18.2689 5.1627 19.0738C6.24517 20.0547 6.18745 20.2655 4.93507 19.9052C1.88425 19.0276 0.280845 18.6466 0.405067 18.8287C0.48341 18.9436 1.71086 19.3591 3.13272 19.7521C5.6811 20.4564 6.18321 20.7808 5.23532 21.1104C3.8832 21.5806 2.64893 21.2746 1.27765 20.1292ZM9.50697 20.7046C8.1715 20.3532 6.36847 18.6603 5.50093 16.9432C4.79662 15.5492 4.18335 12.4314 4.61346 12.4314C4.72417 12.4314 5.34015 12.732 5.98229 13.0993C6.62443 13.4666 7.86917 13.9607 8.74839 14.1973C11.9862 15.0686 13.6505 16.7237 13.6505 19.0723V20.2469L13.0072 19.5059C12.6534 19.0983 11.0211 17.8434 9.37985 16.7171C7.73861 15.5908 6.0903 14.2215 5.71695 13.6741C5.3436 13.1267 4.96505 12.745 4.87573 12.826C4.54765 13.1233 6.3259 15.1505 8.05648 16.4521C11.3256 18.9108 13.0606 20.5426 12.6542 20.7765C12.1713 21.0544 10.7098 21.021 9.50697 20.7046ZM30.138 20.2415C30.1536 19.9762 33.6968 18.1033 34.7023 17.8288C35.4203 17.6328 35.4024 17.6826 34.3972 18.6777C33.8099 19.2592 33.1234 19.8915 32.8717 20.083C32.3815 20.456 30.1177 20.5872 30.138 20.2415ZM22.9654 19.9098C22.867 19.7654 23.0524 19.5182 23.3776 19.3605C23.7028 19.2028 24.9552 17.8794 26.1607 16.4198C27.3661 14.9601 28.9553 13.3807 29.6922 12.9101C30.429 12.4395 30.9681 11.9967 30.8901 11.926C30.5891 11.6533 28.3003 13.2972 26.8826 14.8043C24.4399 17.4012 22.425 19.343 22.1732 19.343C21.7316 19.343 21.5443 17.7353 21.862 16.6706C22.5693 14.2998 25.4032 12.4275 29.058 11.9162C30.0648 11.7754 30.9921 11.7169 31.1186 11.7863C31.2451 11.8557 30.9947 12.333 30.5621 12.8469C30.1295 13.3608 29.5251 14.531 29.2189 15.4474C28.4328 17.8001 27.567 18.9351 26.0517 19.5998C24.6703 20.2058 23.2637 20.3471 22.9654 19.9098ZM29.5156 19.3473C29.5156 19.1977 29.9094 18.6759 30.3907 18.1878C31.1861 17.3812 31.4569 17.2906 33.3654 17.1926L35.465 17.0847L32.7829 18.3521C30.0142 19.6604 29.5156 19.8123 29.5156 19.3473ZM15.7051 16.5139C14.3124 15.1936 13.8326 13.8676 14.0516 11.9447C14.2446 10.2502 15.4038 7.87698 16.4903 6.95207L17.2077 6.34136L16.8941 7.72855C16.672 8.7111 16.6871 10.1033 16.9458 12.5015C17.1611 14.4968 17.2048 16.2278 17.0523 16.7166L16.7937 17.546L15.7051 16.5139ZM17.9218 15.9456C17.9218 15.2828 17.7158 13.4919 17.464 11.9659C17.1209 9.88658 17.0832 8.82311 17.3136 7.72223C17.6813 5.96538 17.9218 5.64016 17.9218 6.89988C17.9218 7.40544 18.4869 8.93066 19.1776 10.2892C20.1409 12.1842 20.3946 12.9754 20.2671 13.6871C20.0337 14.9907 19.167 16.5469 18.4923 16.8741C17.9757 17.1247 17.9218 17.0371 17.9218 15.9456ZM22.6288 12.0868C23.8157 8.59108 24.0008 7.86768 23.5782 8.37615C23.3468 8.65463 22.991 9.52549 22.7876 10.3114C22.5841 11.0973 22.2425 12.0511 22.0284 12.4311L21.6391 13.1218L21.2676 12.3831C20.7035 11.2612 21.143 9.80757 22.3872 8.68016C22.9811 8.14197 23.6266 7.74936 23.8217 7.80768C24.0271 7.86912 24.2149 8.64332 24.268 9.64696C24.3652 11.4859 23.9572 12.4249 22.8216 12.9756C22.2525 13.2516 22.245 13.2172 22.6288 12.0868ZM10.7277 12.6679C10.3787 12.5145 9.86385 12.0372 9.58359 11.6073C8.99459 10.7038 8.8854 8.11111 9.42942 7.94679C9.62489 7.88775 10.4486 8.39354 11.26 9.07078C12.5329 10.1333 12.7352 10.4481 12.7352 11.3668C12.7352 12.6677 12.4054 12.7216 11.7196 11.5329C10.485 9.39301 9.68421 8.22331 9.68421 8.56004C9.68421 8.75942 10.1647 9.70115 10.752 10.6528C12.1635 12.9399 12.1592 13.2974 10.7277 12.6679Z" fill="black"/>
</svg>
